<svg xmlns="http://www.w3.org/2000/svg" viewBox="0 0 1080 1920" width="1080" height="1920">
  <defs>
    <linearGradient id="s6-sky" x1="0%" y1="0%" x2="0%" y2="100%">
      <stop offset="0%" stop-color="#FFF1ED"/>
      <stop offset="50%" stop-color="#FFD8C5"/>
      <stop offset="100%" stop-color="#FF6B47" stop-opacity="0.65"/>
    </linearGradient>
  </defs>
  <rect width="1080" height="1920" fill="url(#s6-sky)"/>

  <circle cx="540" cy="600" r="110" fill="#FF6B47" opacity="0.75"/>
  <circle cx="540" cy="600" r="75" fill="#FF6B47"/>

  <path d="M 0,740 Q 240,680 480,720 Q 720,760 960,700 Q 1080,680 1080,740 L 1080,820 L 0,820 Z" fill="#292f71" opacity="0.35"/>
  <path d="M 0,790 Q 200,750 420,780 Q 660,820 880,770 Q 1000,750 1080,780 L 1080,860 L 0,860 Z" fill="#292f71" opacity="0.55"/>

  <g transform="translate(540, 1080)">
    <ellipse cx="0" cy="70" rx="460" ry="20" fill="#1a1f4d" opacity="0.22"/>
    <path d="M -420,-26 L 420,-26 L 480,36 L -480,36 Z" fill="#292f71"/>
    <path d="M -420,-26 L 420,-26 L 430,-18 L -430,-18 Z" fill="#1a1f4d"/>
    <rect x="-440" y="36" width="14" height="56" fill="#1a1f4d"/>
    <rect x="426" y="36" width="14" height="56" fill="#1a1f4d"/>
    <g>
      <ellipse cx="-330" cy="0" rx="55" ry="12" fill="#FAFAF7"/>
      <ellipse cx="-165" cy="0" rx="55" ry="12" fill="#FAFAF7"/>
      <ellipse cx="0" cy="0" rx="60" ry="14" fill="#FAFAF7"/>
      <ellipse cx="165" cy="0" rx="55" ry="12" fill="#FAFAF7"/>
      <ellipse cx="330" cy="0" rx="55" ry="12" fill="#FAFAF7"/>
    </g>
  </g>

  <text x="540" y="220" font-family="Inter, sans-serif" font-size="32" font-weight="600" text-anchor="middle" fill="#E54D2B" letter-spacing="5">SATURDAY · MAY 16 · 4 PM</text>

  <text x="540" y="1280" font-family="Instrument Serif, Georgia, serif" font-size="60" text-anchor="middle" fill="#1a1f4d">Five courses on a</text>
  <text x="540" y="1350" font-family="Instrument Serif, Georgia, serif" font-style="italic" font-size="60" text-anchor="middle" fill="#E54D2B">working farm in Fillmore.</text>

  <line x1="440" y1="1410" x2="640" y2="1410" stroke="#292f71" stroke-width="1.5"/>

  <text x="540" y="1535" font-family="Instrument Serif, Georgia, serif" font-size="130" font-weight="500" text-anchor="middle" fill="#1a1f4d">Gorp Girls</text>
</svg>
